<?xml version="1.0" standalone="no"?>
<!DOCTYPE svg PUBLIC "-//W3C//DTD SVG 20010904//EN"
 "http://www.w3.org/TR/2001/REC-SVG-20010904/DTD/svg10.dtd">
<svg version="1.0" xmlns="http://www.w3.org/2000/svg"
 width="694.000000pt" height="400.000000pt" viewBox="0 0 694.000000 400.000000"
 preserveAspectRatio="xMidYMid meet">

<g transform="translate(0.000000,400.000000) scale(0.100000,-0.100000)"
fill="#000000" stroke="none">
<path d="M0 2000 l0 -2000 3470 0 3470 0 0 2000 0 2000 -3470 0 -3470 0 0
-2000z m3605 1929 c77 -28 803 -451 857 -498 32 -28 60 -68 85 -119 l38 -76 0
-515 0 -516 -31 -65 c-42 -89 -105 -148 -242 -229 -426 -248 -675 -387 -725
-403 -72 -22 -156 -23 -228 -2 -31 9 -221 112 -448 242 -415 239 -462 273
-512 368 -48 89 -51 123 -47 640 l3 480 38 77 c26 53 53 89 86 118 50 43 678
413 808 476 111 53 213 60 318 22z m-3100 -3176 c44 -133 83 -244 86 -247 3
-3 36 90 74 207 37 116 75 229 83 250 l14 37 89 0 c69 0 89 -3 89 -14 0 -20
-249 -718 -262 -733 -14 -17 -148 -17 -171 0 -17 12 -267 697 -267 730 0 16 9
17 93 15 l92 -3 80 -242z m715 -28 c3 -148 9 -278 14 -288 21 -44 119 -62 176
-32 52 27 55 39 60 325 l5 265 79 3 c57 2 82 -1 87 -10 5 -7 9 -130 9 -274 0
-314 -5 -340 -79 -407 -68 -60 -136 -81 -249 -75 -135 7 -222 54 -263 143 -17
36 -19 69 -19 326 0 157 3 289 7 293 4 4 43 5 88 4 l80 -3 5 -270z m1135 195
l0 -75 -274 -3 c-193 -2 -278 1 -287 9 -9 7 -14 32 -14 64 0 92 -24 86 294 83
l281 -3 0 -75z m329 64 c3 -9 6 -141 6 -295 l0 -279 158 0 c86 0 167 -3 180
-6 20 -6 22 -12 22 -79 0 -57 -3 -74 -16 -79 -24 -9 -497 -7 -512 3 -10 6 -13
84 -12 371 0 199 3 367 6 371 3 5 40 9 84 9 62 0 79 -3 84 -16z m1031 -64 l0
-75 -102 -3 -103 -3 -2 -297 -3 -297 -73 -3 c-46 -2 -79 2 -88 9 -11 9 -14 64
-14 300 l0 288 -102 3 -103 3 -3 64 c-2 35 -1 70 2 78 5 11 58 13 298 11 l293
-3 0 -75z m512 68 c19 -31 270 -724 265 -735 -6 -18 -166 -18 -180 0 -6 7 -47
119 -92 248 -44 128 -83 241 -86 249 -4 8 -44 -97 -90 -233 -46 -137 -88 -255
-95 -263 -13 -16 -164 -20 -174 -4 -6 9 250 715 268 738 6 8 38 12 93 12 55 0
85 -4 91 -12z m491 0 c5 -7 37 -65 72 -128 34 -63 65 -119 70 -123 4 -5 40 52
80 127 l71 136 90 0 c77 0 89 -2 89 -17 0 -9 -53 -114 -117 -232 l-118 -216
-5 -145 -5 -145 -73 -3 c-46 -2 -79 2 -88 9 -11 9 -14 42 -14 145 l0 134 -126
225 c-69 123 -123 229 -119 235 9 15 180 13 193 -2z m960 0 c18 -23 273 -728
267 -738 -9 -15 -170 -13 -183 3 -5 6 -48 125 -95 262 -47 138 -88 243 -91
235 -3 -8 -42 -123 -86 -254 -44 -132 -85 -243 -92 -248 -22 -13 -165 -10
-170 5 -4 10 226 646 261 725 10 20 17 22 95 22 55 0 87 -4 94 -12z m750 4
c18 -12 276 -718 269 -737 -5 -12 -23 -15 -86 -15 -73 0 -82 2 -95 23 -9 12
-50 123 -91 247 -42 124 -80 230 -84 237 -3 7 -42 -94 -85 -225 -43 -130 -85
-247 -92 -259 -13 -21 -22 -23 -95 -23 -56 0 -81 4 -85 13 -5 14 249 712 268
734 12 15 154 18 176 5z m-4144 -295 c14 -10 16 -25 14 -82 l-3 -70 -214 -3
c-153 -2 -218 1 -228 9 -10 9 -13 30 -11 78 3 60 5 66 28 72 48 13 395 10 414
-4z m50 -297 c24 -9 26 -14 26 -79 0 -54 -4 -70 -16 -75 -9 -3 -134 -6 -278
-6 -190 0 -265 3 -274 12 -13 13 -16 116 -4 134 4 6 14 14 22 17 26 10 497 7
524 -3z"/>
<path d="M3350 3871 c-85 -33 -804 -455 -844 -495 -21 -21 -50 -63 -65 -95
l-26 -56 0 -505 0 -505 27 -55 c15 -30 46 -74 70 -97 48 -46 776 -471 852
-497 60 -21 159 -20 218 2 75 28 787 443 839 490 27 24 60 68 76 100 l28 57 3
484 c3 532 2 542 -58 633 -19 28 -57 64 -98 91 -104 70 -731 429 -785 449 -62
24 -176 23 -237 -1z m245 -89 c131 -65 735 -421 771 -455 23 -20 52 -61 65
-90 l24 -52 0 -465 0 -465 -24 -53 c-14 -30 -42 -69 -66 -90 -46 -40 -746
-448 -805 -469 -43 -15 -122 -16 -170 -3 -44 12 -762 427 -811 469 -21 17 -50
57 -66 88 l-28 58 0 465 0 465 26 56 c15 32 44 71 70 93 64 55 762 454 823
471 64 17 126 10 191 -23z"/>
<path d="M3379 3599 c-247 -26 -463 -147 -610 -342 -120 -160 -169 -295 -176
-493 -8 -206 35 -371 139 -529 43 -65 150 -180 208 -223 95 -71 237 -133 359
-157 102 -21 302 -16 396 10 206 57 394 194 511 371 109 165 150 318 141 528
-8 194 -56 334 -168 482 -190 254 -488 386 -800 353z m285 -84 c162 -44 263
-102 381 -220 129 -130 189 -240 226 -419 23 -111 24 -177 4 -292 -75 -428
-475 -727 -900 -674 -364 45 -647 314 -710 675 -19 111 -19 172 1 276 65 346
327 607 671 669 69 13 258 4 327 -15z"/>
<path d="M2841 3096 c-6 -7 -9 -21 -5 -30 6 -15 60 -16 595 -16 324 0 589 -3
589 -7 0 -4 -73 -81 -162 -170 -204 -205 -192 -202 -323 -73 -51 49 -108 97
-128 105 -53 22 -405 22 -413 0 -4 -8 -1 -22 6 -30 10 -12 45 -15 187 -15 201
0 200 0 288 -90 92 -96 130 -120 184 -120 27 0 56 7 70 16 23 16 25 15 157
-117 73 -73 130 -137 126 -141 -4 -4 -271 -9 -592 -10 l-585 -3 0 -25 0 -25
605 -3 c585 -2 606 -1 637 18 68 41 68 43 68 360 0 316 -2 325 -64 367 l-34
23 -597 0 c-494 0 -600 -2 -609 -14z m1239 -373 l0 -278 -140 140 -140 140
137 137 c76 76 139 138 140 138 2 0 3 -125 3 -277z"/>
<path d="M2842 2751 c-8 -5 -12 -17 -10 -27 3 -18 17 -19 268 -19 l265 0 0 25
0 25 -255 2 c-140 2 -261 -1 -268 -6z"/>
<path d="M2994 2575 c-4 -8 -1 -22 6 -30 10 -12 44 -15 179 -15 91 0 172 4
179 9 8 5 12 17 10 27 -3 18 -16 19 -186 22 -156 2 -183 0 -188 -13z"/>
</g>
</svg>
