<?xml version="1.0" standalone="no"?>
<!DOCTYPE svg PUBLIC "-//W3C//DTD SVG 20010904//EN"
 "http://www.w3.org/TR/2001/REC-SVG-20010904/DTD/svg10.dtd">
<svg version="1.0" xmlns="http://www.w3.org/2000/svg"
 width="684.000000pt" height="397.000000pt" viewBox="0 0 684.000000 397.000000"
 preserveAspectRatio="xMidYMid meet">

<g transform="translate(0.000000,397.000000) scale(0.100000,-0.100000)"
fill="#000000" stroke="none">
<path d="M0 1985 l0 -1985 3420 0 3420 0 0 1985 0 1985 -3420 0 -3420 0 0
-1985z m3605 1914 c77 -28 803 -451 857 -498 32 -28 60 -68 85 -119 l38 -76 0
-515 0 -516 -31 -65 c-42 -89 -105 -148 -242 -229 -426 -248 -675 -387 -725
-403 -72 -22 -156 -23 -228 -2 -31 9 -221 112 -448 242 -415 239 -462 273
-512 368 -48 89 -51 123 -47 640 l3 480 38 77 c26 53 53 89 86 118 49 43 678
413 806 475 112 54 216 61 320 23z m-1817 -2566 c11 -43 31 -126 44 -185 12
-60 25 -108 29 -108 3 0 20 64 38 143 18 78 37 161 42 185 l11 42 49 0 c27 0
49 -3 49 -7 0 -5 -9 -42 -19 -83 -11 -41 -38 -147 -61 -235 -58 -226 -57 -221
-64 -234 -4 -6 -25 -11 -47 -11 -32 0 -41 4 -48 23 -14 35 -38 124 -66 242
-15 61 -30 119 -35 130 -9 22 -40 148 -40 165 0 5 21 10 48 10 l49 0 21 -77z
m412 -141 c5 -197 7 -215 24 -228 28 -20 60 -17 82 7 17 19 20 43 24 228 l5
206 42 3 c55 4 56 3 51 -250 -3 -190 -4 -206 -26 -243 -45 -79 -139 -106 -216
-62 -75 42 -81 62 -84 310 -2 121 -1 225 2 234 4 10 18 13 48 11 l43 -3 5
-213z m605 158 l0 -55 -150 0 -150 0 -3 58 -3 58 153 -3 153 -3 0 -55z m179
44 c3 -9 6 -108 6 -220 l0 -204 83 0 c45 0 88 -4 95 -9 9 -5 12 -25 10 -62
l-3 -54 -140 0 -140 0 -3 270 c-1 148 0 275 3 282 7 19 81 17 89 -3z m551 -44
l0 -55 -52 -3 -53 -3 -2 -222 -3 -222 -39 -3 c-24 -2 -42 2 -47 10 -5 7 -9
109 -9 226 l0 212 -55 0 -55 0 0 60 0 61 158 -3 157 -3 0 -55z m294 -7 c11
-38 34 -122 51 -188 17 -66 40 -154 50 -195 30 -114 29 -120 -25 -120 -44 0
-44 1 -56 43 -6 23 -15 53 -20 67 -4 14 -20 80 -36 148 -15 67 -30 122 -34
122 -3 0 -18 -55 -33 -122 -15 -68 -31 -134 -36 -148 -4 -14 -13 -44 -19 -67
-12 -42 -12 -43 -56 -43 -53 0 -54 2 -24 110 11 41 34 127 50 190 31 119 68
249 76 263 2 4 24 7 48 7 l43 0 21 -67z m282 -31 c20 -51 39 -95 41 -98 3 -2
22 41 43 96 l38 100 49 0 c26 0 48 -4 48 -9 0 -11 -41 -121 -91 -246 -27 -68
-33 -97 -38 -195 l-6 -115 -39 -3 c-24 -2 -42 2 -47 10 -5 7 -9 58 -9 113 0
98 -1 103 -56 240 -30 77 -59 148 -65 157 -21 40 -12 49 43 46 l52 -3 37 -93z
m494 41 c9 -32 25 -89 35 -128 11 -38 31 -113 44 -165 14 -52 31 -119 40 -149
8 -30 13 -58 10 -63 -7 -11 -91 -10 -98 1 -3 5 -20 67 -37 137 -47 198 -54
222 -60 228 -3 3 -15 -36 -27 -87 -11 -50 -31 -135 -44 -187 l-23 -95 -48 -3
c-34 -2 -47 1 -47 10 0 12 29 129 102 408 18 69 37 131 41 138 5 6 28 12 52
12 l44 0 16 -57z m392 45 c4 -7 25 -78 45 -158 20 -80 50 -197 67 -260 17 -63
29 -121 26 -127 -2 -8 -21 -13 -43 -13 -22 0 -44 6 -49 13 -5 6 -17 44 -26 82
-54 240 -71 299 -79 269 -4 -16 -22 -94 -41 -174 -43 -183 -46 -190 -97 -190
-21 0 -41 4 -44 9 -3 5 5 47 18 92 13 46 36 134 50 194 15 61 31 118 36 127 6
10 10 24 10 31 0 7 7 37 15 65 l16 52 44 0 c24 0 47 -6 52 -12z m-2233 -214
c12 -5 16 -20 16 -60 l0 -55 -122 3 -123 3 -3 52 c-2 43 0 52 15 56 27 7 199
8 217 1z m35 -228 c7 -8 11 -35 9 -63 l-3 -48 -150 0 -150 0 -3 54 c-2 35 1
57 9 62 7 4 72 8 145 8 103 1 134 -2 143 -13z"/>
<path d="M3358 3846 c-71 -25 -812 -460 -851 -499 -22 -22 -51 -64 -66 -96
l-26 -56 0 -505 0 -505 27 -55 c15 -30 46 -74 70 -97 48 -46 777 -472 854
-498 59 -20 157 -19 216 3 75 28 787 443 839 490 27 24 60 68 76 100 l28 57 3
484 c3 532 2 542 -58 633 -19 28 -57 64 -98 91 -104 70 -731 429 -785 449 -56
21 -174 24 -229 4z m237 -94 c131 -65 735 -421 771 -455 23 -20 52 -61 65 -90
l24 -52 0 -465 0 -465 -24 -53 c-14 -30 -42 -69 -66 -90 -50 -43 -743 -445
-806 -467 -50 -18 -131 -19 -179 -1 -54 19 -756 426 -800 464 -21 18 -51 58
-67 90 l-28 57 0 465 0 465 26 56 c15 32 44 71 70 93 64 55 762 454 823 471
64 17 126 10 191 -23z"/>
<path d="M3383 3569 c-357 -36 -648 -274 -758 -619 -37 -114 -46 -305 -21
-431 47 -233 182 -432 381 -563 166 -110 321 -152 524 -143 143 6 211 22 329
78 261 121 441 350 498 628 25 129 16 316 -23 437 -130 403 -515 656 -930 613z
m281 -84 c162 -44 263 -102 381 -220 129 -130 189 -240 226 -419 23 -111 24
-177 4 -292 -62 -351 -337 -618 -691 -670 -437 -65 -842 231 -919 671 -20 114
-19 180 4 291 34 163 92 279 200 396 125 135 288 226 468 258 69 13 258 4 327
-15z"/>
<path d="M2841 3066 c-6 -7 -9 -21 -5 -30 6 -15 60 -16 595 -16 324 0 589 -3
589 -7 0 -4 -73 -81 -162 -170 -204 -205 -192 -202 -323 -73 -51 49 -108 97
-128 105 -53 22 -405 22 -413 0 -4 -8 -1 -22 6 -30 10 -12 45 -15 187 -15 201
0 200 0 288 -90 92 -96 130 -120 184 -120 27 0 56 7 70 16 23 16 25 15 157
-117 73 -73 130 -137 126 -141 -4 -4 -271 -9 -592 -10 l-585 -3 0 -25 0 -25
605 -3 c585 -2 606 -1 637 18 68 41 68 42 68 365 0 323 0 324 -68 365 -31 19
-55 20 -628 20 -494 0 -599 -2 -608 -14z m1239 -373 l0 -278 -140 140 -140
140 137 137 c76 76 139 138 140 138 2 0 3 -125 3 -277z"/>
<path d="M2842 2721 c-8 -5 -12 -17 -10 -27 3 -18 17 -19 268 -19 l265 0 0 25
0 25 -255 2 c-140 2 -261 -1 -268 -6z"/>
<path d="M2994 2545 c-4 -8 -1 -22 6 -30 10 -12 44 -15 179 -15 91 0 172 4
179 9 8 5 12 17 10 27 -3 18 -16 19 -186 22 -156 2 -183 0 -188 -13z"/>
</g>
</svg>
